                                                                        S      1
,,,6HPart15,22HAutodesk Inventor 2021,7Hunknown,32,38,7,99,15,,1.,2,2HMMG      1
,1,0.08,15H20221213.094031,0.01,10000.,4Huser,,11,0,15H20221210.000000; G      2
     186       1                                                00000000D      1
     186             -39       1       0                               0D      2
     514       2                                                00010000D      3
     514                       1       1                               0D      4
     510       3                                                00010000D      5
     510             -39       1       1                               0D      6
     510       4                                                00010000D      7
     510             -39       1       1                               0D      8
     510       5                                                00010000D      9
     510             -39       1       1                               0D     10
     508       6                                                00010000D     11
     508                       2       1                               0D     12
     508       8                                                00010000D     13
     508                       1       1                               0D     14
     508       9                                                00010000D     15
     508                       1       1                               0D     16
     126      10                                                00010000D     17
     126       0               5       0                               0D     18
     126      15                                                00010000D     19
     126       0               7       0                               0D     20
     126      22                                                00010000D     21
     126       0               2       0                               0D     22
     126      24                                                00010000D     23
     126       0               7       0                               0D     24
     126      31                                                00010000D     25
     126       0               5       0                               0D     26
     128      36                                                00010000D     27
     128       0     -39      11       0                               0D     28
     128      47                                                00010000D     29
     128       0     -39       3       0                               0D     30
     128      50                                                00010000D     31
     128       0     -39       3       0                               0D     32
     502      53                                                00010000D     33
     502                       1       1                               0D     34
     504      54                                                00010001D     35
     504                       2       1                               0D     36
     406      56                                                00000000D     37
     406                       1      15                               0D     38
     314      57                                                00000200D     39
     314                       1       0                               0D     40
186,3,1,0,0,1,37;                                                      1P      1
514,3,5,1,7,1,9,1;                                                     3P      2
510,27,1,1,11;                                                         5P      3
510,29,1,1,13;                                                         7P      4
510,31,1,1,15;                                                         9P      5
508,6,0,35,1,0,0,0,35,2,0,0,0,35,3,1,0,0,35,4,1,0,0,35,5,1,0,0,       11P      6
35,3,0,0;                                                             11P      7
508,2,0,35,1,1,0,0,35,2,1,0;                                          13P      8
508,2,0,35,5,0,0,0,35,4,0,0;                                          15P      9
126,4,2,0,0,0,0,0.,0.,0.,1.5707963267949,1.5707963267949,             17P     10
3.14159265358979,3.14159265358979,3.14159265358979,1.,                17P     11
0.707106781186548,1.,0.707106781186548,1.,20.,0.,500.,20.,20.,        17P     12
500.,1.22464679914735D-15,20.,500.,-20.,20.,500.,-20.,                17P     13
2.44929359829471D-15,500.,0.,3.14159265358979,0.,0.,0.;               17P     14
126,4,2,0,0,0,0,3.14159265358979,3.14159265358979,                    19P     15
3.14159265358979,4.71238898038469,4.71238898038469,                   19P     16
6.28318530717959,6.28318530717959,6.28318530717959,1.,                19P     17
0.707106781186548,1.,0.707106781186547,1.,-20.,                       19P     18
2.44929359829471D-15,500.,-20.,-20.,500.,-3.67394039744206D-15,       19P     19
-20.,500.,20.,-20.,500.,20.,-4.89858719658941D-15,500.,               19P     20
3.14159265358979,6.28318530717959,0.,0.,0.;                           19P     21
126,1,1,0,0,1,0,-25.,-25.,0.,0.,1.,1.,-20.,0.,500.,-20.,0.,0.,        21P     22
-25.,0.,0.,0.,0.;                                                     21P     23
126,4,2,0,0,0,0,3.14159265358979,3.14159265358979,                    23P     24
3.14159265358979,4.71238898038469,4.71238898038469,                   23P     25
6.28318530717959,6.28318530717959,6.28318530717959,1.,                23P     26
0.707106781186548,1.,0.707106781186547,1.,-20.,                       23P     27
2.44929359829471D-15,0.,-20.,-20.,0.,-3.67394039744206D-15,-20.,      23P     28
0.,20.,-20.,0.,20.,-4.89858719658941D-15,0.,3.14159265358979,         23P     29
6.28318530717959,0.,0.,0.;                                            23P     30
126,4,2,0,0,0,0,0.,0.,0.,1.5707963267949,1.5707963267949,             25P     31
3.14159265358979,3.14159265358979,3.14159265358979,1.,                25P     32
0.707106781186548,1.,0.707106781186548,1.,20.,0.,0.,20.,20.,0.,       25P     33
1.22464679914735D-15,20.,0.,-20.,20.,0.,-20.,                         25P     34
2.44929359829471D-15,0.,0.,3.14159265358979,0.,0.,0.;                 25P     35
128,1,8,1,2,0,1,0,0,1,0.,0.,25.,25.,-3.14159265358979,                27P     36
-3.14159265358979,-3.14159265358979,-1.5707963267949,                 27P     37
-1.5707963267949,0.,0.,1.5707963267949,1.5707963267949,               27P     38
3.14159265358979,3.14159265358979,3.14159265358979,1.,1.,             27P     39
0.707106781186548,0.707106781186548,1.,1.,0.707106781186548,          27P     40
0.707106781186548,1.,1.,0.707106781186548,0.707106781186548,1.,       27P     41
1.,0.707106781186548,0.707106781186548,1.,1.,-20.,0.,500.,-20.,       27P     42
0.,0.,-20.,-20.,500.,-20.,-20.,0.,0.,-20.,500.,0.,-20.,0.,20.,        27P     43
-20.,500.,20.,-20.,0.,20.,0.,500.,20.,0.,0.,20.,20.,500.,20.,         27P     44
20.,0.,0.,20.,500.,0.,20.,0.,-20.,20.,500.,-20.,20.,0.,-20.,0.,       27P     45
500.,-20.,0.,0.,0.,25.,-3.14159265358979,3.14159265358979;            27P     46
128,1,1,1,1,0,0,1,0,0,-2.001,-2.001,2.001,2.001,-2.001,-2.001,        29P     47
2.001,2.001,1.,1.,1.,1.,-20.01,-20.01,500.,20.01,-20.01,500.,         29P     48
-20.01,20.01,500.,20.01,20.01,500.,-2.001,2.001,-2.001,2.001;         29P     49
128,1,1,1,1,0,0,1,0,0,-2.001,-2.001,2.001,2.001,-2.001,-2.001,        31P     50
2.001,2.001,1.,1.,1.,1.,20.01,-20.01,0.,-20.01,-20.01,0.,20.01,       31P     51
20.01,0.,-20.01,20.01,0.,-2.001,2.001,-2.001,2.001;                   31P     52
502,4,20.,0.,500.,-20.,0.,500.,-20.,0.,0.,20.,0.,0.;                  33P     53
504,5,17,33,1,33,2,19,33,2,33,1,21,33,2,33,3,23,33,3,33,4,25,33,      35P     54
4,33,3;                                                               35P     55
406,1,6HSolid2;                                                       37P     56
314,74.9019607843137,74.9019607843137,74.9019607843137,;              39P     57
S      1G      2D     40P     57                                        T      1
