                                                                        S      1
,,,5Hpart7,22HAutodesk Inventor 2021,7Hunknown,32,38,7,99,15,,1.,2,2HMM,G      1
1,0.08,15H20221213.025129,0.01,10000.,4Huser,,11,0,15H20221210.000000;  G      2
     186       1                                                00000000D      1
     186            -155       1       0                               0D      2
     514       2                                                00010000D      3
     514                       1       1                               0D      4
     510       3                                                00010000D      5
     510            -155       1       1                               0D      6
     510       4                                                00010000D      7
     510            -155       1       1                               0D      8
     510       5                                                00010000D      9
     510            -155       1       1                               0D     10
     510       6                                                00010000D     11
     510            -155       1       1                               0D     12
     510       7                                                00010000D     13
     510            -155       1       1                               0D     14
     510       8                                                00010000D     15
     510            -155       1       1                               0D     16
     510       9                                                00010000D     17
     510            -155       1       1                               0D     18
     510      10                                                00010000D     19
     510            -155       1       1                               0D     20
     510      11                                                00010000D     21
     510            -155       1       1                               0D     22
     510      12                                                00010000D     23
     510            -155       1       1                               0D     24
     510      13                                                00010000D     25
     510            -155       1       1                               0D     26
     510      14                                                00010000D     27
     510            -155       1       1                               0D     28
     508      15                                                00010000D     29
     508                       2       1                               0D     30
     508      17                                                00010000D     31
     508                       2       1                               0D     32
     508      19                                                00010000D     33
     508                       1       1                               0D     34
     508      20                                                00010000D     35
     508                       1       1                               0D     36
     508      21                                                00010000D     37
     508                       1       1                               0D     38
     508      22                                                00010000D     39
     508                       1       1                               0D     40
     508      23                                                00010000D     41
     508                       1       1                               0D     42
     508      24                                                00010000D     43
     508                       1       1                               0D     44
     508      25                                                00010000D     45
     508                       1       1                               0D     46
     508      26                                                00010000D     47
     508                       1       1                               0D     48
     508      27                                                00010000D     49
     508                       1       1                               0D     50
     508      28                                                00010000D     51
     508                       1       1                               0D     52
     508      29                                                00010000D     53
     508                       1       1                               0D     54
     508      30                                                00010000D     55
     508                       1       1                               0D     56
     508      31                                                00010000D     57
     508                       2       1                               0D     58
     508      33                                                00010000D     59
     508                       2       1                               0D     60
     126      35                                                00010000D     61
     126       0               6       0                               0D     62
     126      41                                                00010000D     63
     126       0               7       0                               0D     64
     126      48                                                00010000D     65
     126       0               4       0                               0D     66
     126      52                                                00010000D     67
     126       0              11       0                               0D     68
     126      63                                                00010000D     69
     126       0               7       0                               0D     70
     126      70                                                00010000D     71
     126       0               7       0                               0D     72
     126      77                                                00010000D     73
     126       0               4       0                               0D     74
     126      81                                                00010000D     75
     126       0              11       0                               0D     76
     126      92                                                00010000D     77
     126       0               3       0                               0D     78
     126      95                                                00010000D     79
     126       0               3       0                               0D     80
     126      98                                                00010000D     81
     126       0               3       0                               0D     82
     126     101                                                00010000D     83
     126       0               2       0                               0D     84
     126     103                                                00010000D     85
     126       0               2       0                               0D     86
     126     105                                                00010000D     87
     126       0               2       0                               0D     88
     126     107                                                00010000D     89
     126       0               2       0                               0D     90
     126     109                                                00010000D     91
     126       0               4       0                               0D     92
     126     113                                                00010000D     93
     126       0               4       0                               0D     94
     126     117                                                00010000D     95
     126       0               3       0                               0D     96
     126     120                                                00010000D     97
     126       0               9       0                               0D     98
     126     129                                                00010000D     99
     126       0               9       0                               0D    100
     126     138                                                00010000D    101
     126       0               3       0                               0D    102
     126     141                                                00010000D    103
     126       0               3       0                               0D    104
     126     144                                                00010000D    105
     126       0               3       0                               0D    106
     126     147                                                00010000D    107
     126       0               2       0                               0D    108
     126     149                                                00010000D    109
     126       0               3       0                               0D    110
     126     152                                                00010000D    111
     126       0               3       0                               0D    112
     126     155                                                00010000D    113
     126       0               2       0                               0D    114
     126     157                                                00010000D    115
     126       0               3       0                               0D    116
     126     160                                                00010000D    117
     126       0               3       0                               0D    118
     126     163                                                00010000D    119
     126       0               3       0                               0D    120
     126     166                                                00010000D    121
     126       0              10       0                               0D    122
     126     176                                                00010000D    123
     126       0              10       0                               0D    124
     128     186                                                00010000D    125
     128       0    -155      19       0                               0D    126
     128     205                                                00010000D    127
     128       0    -155      19       0                               0D    128
     128     224                                                00010000D    129
     128       0    -155       5       0                               0D    130
     128     229                                                00010000D    131
     128       0    -155       4       0                               0D    132
     128     233                                                00010000D    133
     128       0    -155       6       0                               0D    134
     128     239                                                00010000D    135
     128       0    -155      16       0                               0D    136
     128     255                                                00010000D    137
     128       0    -155       6       0                               0D    138
     128     261                                                00010000D    139
     128       0    -155       5       0                               0D    140
     128     266                                                00010000D    141
     128       0    -155       5       0                               0D    142
     128     271                                                00010000D    143
     128       0    -155      17       0                               0D    144
     128     288                                                00010000D    145
     128       0    -155       6       0                               0D    146
     128     294                                                00010000D    147
     128       0    -155       6       0                               0D    148
     502     300                                                00010000D    149
     502                      12       1                               0D    150
     504     312                                                00010001D    151
     504                       9       1                               0D    152
     406     321                                                00000000D    153
     406                       1      15                               0D    154
     314     322                                                00000200D    155
     314                       1       0                               0D    156
186,3,1,0,0,1,153;                                                     1P      1
514,12,5,1,7,1,9,1,11,1,13,1,15,1,17,1,19,1,21,1,23,1,25,1,27,1;       3P      2
510,125,1,1,29;                                                        5P      3
510,127,1,1,31;                                                        7P      4
510,129,2,1,33,35;                                                     9P      5
510,131,1,1,37;                                                       11P      6
510,133,2,1,39,41;                                                    13P      7
510,135,1,1,43;                                                       15P      8
510,137,2,1,45,47;                                                    17P      9
510,139,1,1,49;                                                       19P     10
510,141,2,1,51,53;                                                    21P     11
510,143,1,1,55;                                                       23P     12
510,145,1,1,57;                                                       25P     13
510,147,1,1,59;                                                       27P     14
508,5,0,151,1,0,0,0,151,2,0,0,0,151,3,1,0,0,151,4,0,0,0,151,3,0,      29P     15
0;                                                                    29P     16
508,5,0,151,5,0,0,0,151,6,0,0,0,151,7,1,0,0,151,8,0,0,0,151,7,0,      31P     17
0;                                                                    31P     18
508,4,0,151,9,1,0,0,151,10,1,0,0,151,11,0,0,0,151,12,0,0;             33P     19
508,1,0,151,8,1,0;                                                    35P     20
508,4,0,151,13,1,0,0,151,12,1,0,0,151,14,0,0,0,151,15,0,0;            37P     21
508,4,0,151,16,1,0,0,151,15,1,0,0,151,17,0,0,0,151,18,0,0;            39P     22
508,2,0,151,5,1,0,0,151,6,1,0;                                        41P     23
508,4,0,151,19,1,0,0,151,18,1,0,0,151,20,0,0,0,151,21,0,0;            43P     24
508,4,0,151,22,1,0,0,151,21,1,0,0,151,23,0,0,0,151,24,0,0;            45P     25
508,2,0,151,1,1,0,0,151,2,1,0;                                        47P     26
508,4,0,151,25,1,0,0,151,24,1,0,0,151,26,0,0,0,151,27,0,0;            49P     27
508,4,0,151,28,1,0,0,151,27,1,0,0,151,29,0,0,0,151,30,0,0;            51P     28
508,1,0,151,4,1,0;                                                    53P     29
508,4,0,151,31,1,0,0,151,30,1,0,0,151,32,0,0,0,151,10,0,0;            55P     30
508,8,0,151,32,1,0,0,151,29,1,0,0,151,26,1,0,0,151,23,1,0,0,151,      57P     31
20,1,0,0,151,17,1,0,0,151,14,1,0,0,151,11,1,0;                        57P     32
508,8,0,151,31,0,0,0,151,9,0,0,0,151,13,0,0,0,151,16,0,0,0,151,       59P     33
19,0,0,0,151,22,0,0,0,151,25,0,0,0,151,28,0,0;                        59P     34
126,4,2,0,0,0,0,0.,0.,0.,1.5707963267949,1.5707963267949,             61P     35
3.14159265358979,3.14159265358979,3.14159265358979,1.,                61P     36
0.707106781186545,1.,0.707106781186545,1.,6.9,-9.69914862105496,      61P     37
-35.,6.9,-9.69914862105496,-32.1,4.,-9.69914862105496,-32.1,1.1,      61P     38
-9.69914862105496,-32.1,1.1,-9.69914862105496,-35.,0.,                61P     39
3.14159265358979,0.,0.,0.;                                            61P     40
126,4,2,0,0,0,0,3.14159265358979,3.14159265358979,                    63P     41
3.14159265358979,4.71238898038469,4.71238898038469,                   63P     42
6.28318530717959,6.28318530717959,6.28318530717959,1.,                63P     43
0.707106781186545,1.,0.707106781186549,1.,1.1,-9.69914862105496,      63P     44
-35.,1.1,-9.69914862105496,-37.9,4.,-9.69914862105496,-37.9,6.9,      63P     45
-9.69914862105496,-37.9,6.9,-9.69914862105496,-35.,                   63P     46
3.14159265358979,6.28318530717959,0.,0.,0.;                           63P     47
126,1,1,0,0,1,0,-7.93477743998692D-17,-7.93477743998692D-17,          65P     48
0.551724137931037,0.551724137931037,1.,1.,1.1,-9.69914862105496,      65P     49
-35.,1.1,-11.299148621055,-35.,-7.93477743998692D-17,                 65P     50
0.551724137931037,0.,0.,0.;                                           65P     51
126,8,2,0,1,0,0,-3.14159265358979,-3.14159265358979,                  67P     52
-3.14159265358979,-1.5707963267949,-1.5707963267949,0.,0.,            67P     53
1.5707963267949,1.5707963267949,3.14159265358979,                     67P     54
3.14159265358979,3.14159265358979,1.,0.707106781186545,1.,            67P     55
0.707106781186545,1.,0.707106781186545,1.,0.707106781186545,1.,       67P     56
1.1,-11.299148621055,-35.,1.1,-11.299148621055,-32.1,4.,              67P     57
-11.299148621055,-32.1,6.9,-11.299148621055,-32.1,6.9,                67P     58
-11.299148621055,-35.,6.9,-11.299148621055,-37.9,4.,                  67P     59
-11.299148621055,-37.9,1.1,-11.299148621055,-37.9,1.1,                67P     60
-11.299148621055,-35.,-3.14159265358979,3.14159265358979,0.,0.,       67P     61
0.;                                                                   67P     62
126,4,2,0,0,0,0,4.83467309063631D-32,4.83467309063631D-32,            69P     63
4.83467309063631D-32,1.5707963267949,1.5707963267949,                 69P     64
3.14159265358979,3.14159265358979,3.14159265358979,1.,                69P     65
0.707106781186545,1.,0.707106781186545,1.,6.9,-9.69914862105497,      69P     66
35.,6.9,-9.69914862105497,37.9,4.,-9.69914862105497,37.9,1.1,         69P     67
-9.69914862105497,37.9,1.1,-9.69914862105497,35.,                     69P     68
4.83467309063631D-32,3.14159265358979,0.,0.,0.;                       69P     69
126,4,2,0,0,0,0,3.14159265358979,3.14159265358979,                    71P     70
3.14159265358979,4.71238898038469,4.71238898038469,                   71P     71
6.28318530717959,6.28318530717959,6.28318530717959,1.,                71P     72
0.707106781186545,1.,0.707106781186549,1.,1.1,-9.69914862105497,      71P     73
35.,1.1,-9.69914862105497,32.1,4.,-9.69914862105497,32.1,6.9,         71P     74
-9.69914862105497,32.1,6.9,-9.69914862105497,35.,                     71P     75
3.14159265358979,6.28318530717959,0.,0.,0.;                           71P     76
126,1,1,0,0,1,0,-4.62183300132682D-16,-4.62183300132682D-16,          73P     77
0.551724137931036,0.551724137931036,1.,1.,1.1,-9.69914862105497,      73P     78
35.,1.1,-11.299148621055,35.,-4.62183300132682D-16,                   73P     79
0.551724137931036,0.,0.,0.;                                           73P     80
126,8,2,0,1,0,0,-3.14159265358979,-3.14159265358979,                  75P     81
-3.14159265358979,-1.5707963267949,-1.5707963267949,0.,0.,            75P     82
1.5707963267949,1.5707963267949,3.14159265358979,                     75P     83
3.14159265358979,3.14159265358979,1.,0.707106781186545,1.,            75P     84
0.707106781186545,1.,0.707106781186545,1.,0.707106781186545,1.,       75P     85
1.1,-11.299148621055,35.,1.1,-11.299148621055,37.9,4.,                75P     86
-11.299148621055,37.9,6.9,-11.299148621055,37.9,6.9,                  75P     87
-11.299148621055,35.,6.9,-11.299148621055,32.1,4.,                    75P     88
-11.299148621055,32.1,1.1,-11.299148621055,32.1,1.1,                  75P     89
-11.299148621055,35.,-3.14159265358979,3.14159265358979,0.,0.,        75P     90
0.;                                                                   75P     91
126,1,1,0,0,1,0,0.,0.,2.72988915477219,2.72988915477219,1.,1.,        77P     92
0.,-11.299148621055,45.,0.,-11.299148621055,17.7011084522781,0.,      77P     93
2.72988915477219,0.,0.,0.;                                            77P     94
126,1,1,0,0,1,0,0.,0.,0.8,0.8,1.,1.,0.,-11.299148621055,              79P     95
17.7011084522781,8.,-11.299148621055,17.7011084522781,0.,0.8,0.,      79P     96
0.,0.;                                                                79P     97
126,1,1,0,0,1,0,0.,0.,2.72988915477219,2.72988915477219,1.,1.,        81P     98
8.,-11.299148621055,45.,8.,-11.299148621055,17.7011084522781,0.,      81P     99
2.72988915477219,0.,0.,0.;                                            81P    100
126,1,1,0,0,1,0,0.,0.,0.8,0.8,1.,1.,0.,-11.299148621055,45.,8.,       83P    101
-11.299148621055,45.,0.,0.8,0.,0.,0.;                                 83P    102
126,1,1,0,0,1,0,0.,0.,0.16,0.16,1.,1.,0.,-9.69914862105497,45.,       85P    103
0.,-11.299148621055,45.,0.,0.16,0.,0.,0.;                             85P    104
126,1,1,0,0,1,0,0.,0.,0.16,0.16,1.,1.,8.,-9.69914862105497,45.,       87P    105
8.,-11.299148621055,45.,0.,0.16,0.,0.,0.;                             87P    106
126,1,1,0,0,1,0,0.,0.,0.8,0.8,1.,1.,0.,-9.69914862105497,45.,8.,      89P    107
-9.69914862105497,45.,0.,0.8,0.,0.,0.;                                89P    108
126,1,1,0,0,1,0,0.0897522774655537,0.0897522774655537,                91P    109
2.63740365074263,2.63740365074263,1.,1.,0.,-9.69914862105497,         91P    110
19.5234862672292,0.,-9.69914862105497,45.,0.0897522774655537,         91P    111
2.63740365074263,0.,0.,0.;                                            91P    112
126,1,1,0,0,1,0,0.0897522774655537,0.0897522774655537,                93P    113
2.63740365074263,2.63740365074263,1.,1.,8.,-9.69914862105497,         93P    114
19.5234862672292,8.,-9.69914862105497,45.,0.0897522774655537,         93P    115
2.63740365074263,0.,0.,0.;                                            93P    116
126,1,1,0,0,1,0,0.,0.,0.8,0.8,1.,1.,0.,-9.69914862105496,             95P    117
19.5234862672292,8.,-9.69914862105496,19.5234862672292,0.,0.8,        95P    118
0.,0.,0.;                                                             95P    119
126,6,2,0,0,0,0,0.,0.,0.,1.35458383806612,1.35458383806612,           97P    120
2.70916767613225,2.70916767613225,4.06375151419837,                   97P    121
4.06375151419837,4.06375151419837,1.,0.779272687848322,1.,            97P    122
0.779272687848323,1.,0.779272687848322,1.,0.,-9.69914862105497,       97P    123
-19.5234862672292,0.,6.0014860950177,-27.3234656086082,0.,            97P    124
16.9881445950934,-13.6617328043041,0.,27.9748030951691,               97P    125
-7.7715611723761D-15,0.,16.9881445950934,13.6617328043041,0.,         97P    126
6.0014860950177,27.3234656086082,0.,-9.69914862105496,                97P    127
19.5234862672292,0.,4.06375151419837,0.,0.,0.;                        97P    128
126,6,2,0,0,0,0,0.,0.,0.,1.35458383806612,1.35458383806612,           99P    129
2.70916767613225,2.70916767613225,4.06375151419837,                   99P    130
4.06375151419837,4.06375151419837,1.,0.779272687848322,1.,            99P    131
0.779272687848323,1.,0.779272687848322,1.,8.,-9.69914862105497,       99P    132
-19.5234862672292,8.,6.0014860950177,-27.3234656086082,8.,            99P    133
16.9881445950934,-13.6617328043041,8.,27.9748030951691,               99P    134
-7.7715611723761D-15,8.,16.9881445950934,13.6617328043041,8.,         99P    135
6.0014860950177,27.3234656086082,8.,-9.69914862105496,                99P    136
19.5234862672292,0.,4.06375151419837,0.,0.,0.;                        99P    137
126,1,1,0,0,1,0,0.,0.,0.8,0.8,1.,1.,0.,-9.69914862105497,            101P    138
-19.5234862672292,8.,-9.69914862105497,-19.5234862672292,0.,0.8,     101P    139
0.,0.,0.;                                                            101P    140
126,1,1,0,0,1,0,0.,0.,2.54765137327708,2.54765137327708,1.,1.,       103P    141
0.,-9.69914862105496,-45.,0.,-9.69914862105497,                      103P    142
-19.5234862672292,0.,2.54765137327708,0.,0.,0.;                      103P    143
126,1,1,0,0,1,0,0.,0.,2.54765137327708,2.54765137327708,1.,1.,       105P    144
8.,-9.69914862105496,-45.,8.,-9.69914862105497,                      105P    145
-19.5234862672292,0.,2.54765137327708,0.,0.,0.;                      105P    146
126,1,1,0,0,1,0,0.,0.,0.8,0.8,1.,1.,0.,-9.69914862105496,-45.,       107P    147
8.,-9.69914862105496,-45.,0.,0.8,0.,0.,0.;                           107P    148
126,1,1,0,0,1,0,0.,0.,0.160000000000001,0.160000000000001,1.,1.,     109P    149
0.,-11.299148621055,-45.,0.,-9.69914862105496,-45.,0.,               109P    150
0.160000000000001,0.,0.,0.;                                          109P    151
126,1,1,0,0,1,0,0.,0.,0.160000000000001,0.160000000000001,1.,1.,     111P    152
8.,-11.299148621055,-45.,8.,-9.69914862105496,-45.,0.,               111P    153
0.160000000000001,0.,0.,0.;                                          111P    154
126,1,1,0,0,1,0,0.,0.,0.8,0.8,1.,1.,0.,-11.299148621055,-45.,8.,     113P    155
-11.299148621055,-45.,0.,0.8,0.,0.,0.;                               113P    156
126,1,1,0,0,1,0,0.,0.,2.72988915477219,2.72988915477219,1.,1.,       115P    157
0.,-11.299148621055,-17.7011084522781,0.,-11.299148621055,-45.,      115P    158
0.,2.72988915477219,0.,0.,0.;                                        115P    159
126,1,1,0,0,1,0,0.,0.,2.72988915477219,2.72988915477219,1.,1.,       117P    160
8.,-11.299148621055,-17.7011084522781,8.,-11.299148621055,-45.,      117P    161
0.,2.72988915477219,0.,0.,0.;                                        117P    162
126,1,1,0,0,1,0,0.,0.,0.8,0.8,1.,1.,0.,-11.299148621055,             119P    163
-17.7011084522781,8.,-11.299148621055,-17.7011084522781,0.,0.8,      119P    164
0.,0.,0.;                                                            119P    165
126,6,2,0,0,0,0,-1.13625512386931,-1.13625512386931,                 121P    166
-1.13625512386931,0.289694135283726,0.289694135283726,               121P    167
1.71564339443676,1.71564339443676,3.14159265358979,                  121P    168
3.14159265358979,3.14159265358979,1.,0.75641955968557,1.,            121P    169
0.756419559685571,1.,0.756419559685571,1.,0.,-11.299148621055,       121P    170
17.7011084522781,0.,4.00725109859178,27.4716426395484,0.,            121P    171
15.884810753397,13.7358213197742,0.,27.7623704082022,                121P    172
6.66133814775094D-15,0.,15.884810753397,-13.7358213197742,0.,        121P    173
4.00725109859178,-27.4716426395484,0.,-11.299148621055,              121P    174
-17.7011084522781,-1.13625512386931,3.14159265358979,0.,0.,0.;       121P    175
126,6,2,0,0,0,0,-1.13625512386931,-1.13625512386931,                 123P    176
-1.13625512386931,0.289694135283726,0.289694135283726,               123P    177
1.71564339443676,1.71564339443676,3.14159265358979,                  123P    178
3.14159265358979,3.14159265358979,1.,0.75641955968557,1.,            123P    179
0.756419559685571,1.,0.756419559685571,1.,8.,-11.299148621055,       123P    180
17.7011084522781,8.,4.00725109859178,27.4716426395484,8.,            123P    181
15.884810753397,13.7358213197742,8.,27.7623704082022,                123P    182
6.66133814775094D-15,8.,15.884810753397,-13.7358213197742,8.,        123P    183
4.00725109859178,-27.4716426395484,8.,-11.299148621055,              123P    184
-17.7011084522781,-1.13625512386931,3.14159265358979,0.,0.,0.;       123P    185
128,1,8,1,2,0,1,0,0,1,-7.93477743998692D-17,                         125P    186
-7.93477743998692D-17,0.551724137931037,0.551724137931037,           125P    187
-3.14159265358979,-3.14159265358979,-3.14159265358979,               125P    188
-1.5707963267949,-1.5707963267949,0.,0.,1.5707963267949,             125P    189
1.5707963267949,3.14159265358979,3.14159265358979,                   125P    190
3.14159265358979,1.,1.,0.707106781186548,0.707106781186548,1.,       125P    191
1.,0.707106781186548,0.707106781186548,1.,1.,0.707106781186548,      125P    192
0.707106781186548,1.,1.,0.707106781186548,0.707106781186548,1.,      125P    193
1.,1.1,-9.69914862105496,-35.,1.1,-11.299148621055,-35.,1.1,         125P    194
-9.69914862105496,-37.9,1.1,-11.299148621055,-37.9,4.,               125P    195
-9.69914862105496,-37.9,4.,-11.299148621055,-37.9,6.9,               125P    196
-9.69914862105496,-37.9,6.9,-11.299148621055,-37.9,6.9,              125P    197
-9.69914862105496,-35.,6.9,-11.299148621055,-35.,6.9,                125P    198
-9.69914862105496,-32.1,6.9,-11.299148621055,-32.1,4.,               125P    199
-9.69914862105496,-32.1,4.,-11.299148621055,-32.1,1.1,               125P    200
-9.69914862105496,-32.1,1.1,-11.299148621055,-32.1,1.1,              125P    201
-9.69914862105496,-35.,1.1,-11.299148621055,-35.,                    125P    202
-7.93477743998692D-17,0.551724137931037,-3.14159265358979,           125P    203
3.14159265358979;                                                    125P    204
128,1,8,1,2,0,1,0,0,1,-4.62183300132682D-16,                         127P    205
-4.62183300132682D-16,0.551724137931036,0.551724137931036,           127P    206
-3.14159265358979,-3.14159265358979,-3.14159265358979,               127P    207
-1.5707963267949,-1.5707963267949,0.,0.,1.5707963267949,             127P    208
1.5707963267949,3.14159265358979,3.14159265358979,                   127P    209
3.14159265358979,1.,1.,0.707106781186548,0.707106781186548,1.,       127P    210
1.,0.707106781186548,0.707106781186548,1.,1.,0.707106781186548,      127P    211
0.707106781186548,1.,1.,0.707106781186548,0.707106781186548,1.,      127P    212
1.,1.1,-9.69914862105497,35.,1.1,-11.299148621055,35.,1.1,           127P    213
-9.69914862105497,32.1,1.1,-11.299148621055,32.1,4.,                 127P    214
-9.69914862105497,32.1,4.,-11.299148621055,32.1,6.9,                 127P    215
-9.69914862105497,32.1,6.9,-11.299148621055,32.1,6.9,                127P    216
-9.69914862105497,35.,6.9,-11.299148621055,35.,6.9,                  127P    217
-9.69914862105497,37.9,6.9,-11.299148621055,37.9,4.,                 127P    218
-9.69914862105497,37.9,4.,-11.299148621055,37.9,1.1,                 127P    219
-9.69914862105497,37.9,1.1,-11.299148621055,37.9,1.1,                127P    220
-9.69914862105497,35.,1.1,-11.299148621055,35.,                      127P    221
-4.62183300132682D-16,0.551724137931036,-3.14159265358979,           127P    222
3.14159265358979;                                                    127P    223
128,1,1,1,1,0,0,1,0,0,-0.001,-0.001,2.73088915477219,                129P    224
2.73088915477219,-0.001,-0.001,0.801,0.801,1.,1.,1.,1.,-0.01,        129P    225
-11.299148621055,45.01,-0.01,-11.299148621055,17.6911084522781,      129P    226
8.01,-11.299148621055,45.01,8.01,-11.299148621055,                   129P    227
17.6911084522781,-0.001,2.73088915477219,-0.001,0.801;               129P    228
128,1,1,1,1,0,0,1,0,0,-0.001,-0.001,0.161,0.161,-0.001,-0.001,       131P    229
0.801,0.801,1.,1.,1.,1.,-0.01,-9.68914862105497,45.,-0.01,           131P    230
-11.309148621055,45.,8.01,-9.68914862105497,45.,8.01,                131P    231
-11.309148621055,45.,-0.001,0.161,-0.001,0.801;                      131P    232
128,1,1,1,1,0,0,1,0,0,-0.00100000000000022,-0.00100000000000022,     133P    233
2.54865137327708,2.54865137327708,-0.001,-0.001,0.801,0.801,1.,      133P    234
1.,1.,1.,-0.01,-9.69914862105497,19.5134862672292,-0.01,             133P    235
-9.69914862105497,45.01,8.01,-9.69914862105497,19.5134862672292,     133P    236
8.01,-9.69914862105497,45.01,-0.00100000000000022,                   133P    237
2.54865137327708,-0.001,0.801;                                       133P    238
128,1,6,1,2,0,0,0,0,0,0.,0.,0.36697247706422,0.36697247706422,       135P    239
0.,0.,0.,1.35458383806612,1.35458383806612,2.70916767613225,         135P    240
2.70916767613225,4.06375151419837,4.06375151419837,                  135P    241
4.06375151419837,1.,1.,0.779272687848322,0.779272687848322,1.,       135P    242
1.,0.779272687848322,0.779272687848322,1.,1.,0.779272687848322,      135P    243
0.779272687848322,1.,1.,8.,-9.69914862105497,-19.5234862672292,      135P    244
0.,-9.69914862105497,-19.5234862672292,8.,6.00148609501769,          135P    245
-27.3234656086082,0.,6.00148609501769,-27.3234656086082,8.,          135P    246
16.9881445950934,-13.6617328043041,0.,16.9881445950934,              135P    247
-13.6617328043041,8.,27.9748030951691,-6.66133814775094D-15,0.,      135P    248
27.9748030951691,-6.66133814775094D-15,8.,16.9881445950934,          135P    249
13.6617328043041,0.,16.9881445950934,13.6617328043041,8.,            135P    250
6.0014860950177,27.3234656086082,0.,6.0014860950177,                 135P    251
27.3234656086082,8.,-9.69914862105496,19.5234862672292,0.,           135P    252
-9.69914862105496,19.5234862672292,0.,0.36697247706422,0.,           135P    253
4.06375151419837;                                                    135P    254
128,1,1,1,1,0,0,1,0,0,-0.001,-0.001,2.54865137327708,                137P    255
2.54865137327708,-0.001,-0.001,0.801,0.801,1.,1.,1.,1.,-0.01,        137P    256
-9.69914862105496,-45.01,-0.01,-9.69914862105497,                    137P    257
-19.5134862672292,8.01,-9.69914862105496,-45.01,8.01,                137P    258
-9.69914862105497,-19.5134862672292,-0.001,2.54865137327708,         137P    259
-0.001,0.801;                                                        137P    260
128,1,1,1,1,0,0,1,0,0,-0.001,-0.001,0.161000000000001,               139P    261
0.161000000000001,-0.001,-0.001,0.801,0.801,1.,1.,1.,1.,-0.01,       139P    262
-11.309148621055,-45.,-0.01,-9.68914862105496,-45.,8.01,             139P    263
-11.309148621055,-45.,8.01,-9.68914862105496,-45.,-0.001,            139P    264
0.161000000000001,-0.001,0.801;                                      139P    265
128,1,1,1,1,0,0,1,0,0,-0.001,-0.001,2.73088915477219,                141P    266
2.73088915477219,-0.001,-0.001,0.801,0.801,1.,1.,1.,1.,-0.01,        141P    267
-11.299148621055,-17.6911084522781,-0.01,-11.299148621055,           141P    268
-45.01,8.01,-11.299148621055,-17.6911084522781,8.01,                 141P    269
-11.299148621055,-45.01,-0.001,2.73088915477219,-0.001,0.801;        141P    270
128,1,6,1,2,0,0,0,0,0,0.,0.,0.380952380952381,0.380952380952381,     143P    271
-3.14159265358979,-3.14159265358979,-3.14159265358979,               143P    272
-1.71564339443676,-1.71564339443676,-0.289694135283727,              143P    273
-0.289694135283727,1.13625512386931,1.13625512386931,                143P    274
1.13625512386931,1.,1.,0.75641955968557,0.75641955968557,1.,1.,      143P    275
0.75641955968557,0.75641955968557,1.,1.,0.75641955968557,            143P    276
0.75641955968557,1.,1.,0.,-11.299148621055,-17.7011084522781,8.,     143P    277
-11.299148621055,-17.7011084522781,0.,4.00725109859178,              143P    278
-27.4716426395484,8.,4.00725109859178,-27.4716426395484,0.,          143P    279
15.884810753397,-13.7358213197742,8.,15.884810753397,                143P    280
-13.7358213197742,0.,27.7623704082022,4.44089209850063D-15,8.,       143P    281
27.7623704082022,4.44089209850063D-15,0.,15.884810753397,            143P    282
13.7358213197742,8.,15.884810753397,13.7358213197742,0.,             143P    283
4.00725109859177,27.4716426395484,8.,4.00725109859177,               143P    284
27.4716426395484,0.,-11.299148621055,17.7011084522781,8.,            143P    285
-11.299148621055,17.7011084522781,0.,0.380952380952381,              143P    286
-3.14159265358979,1.13625512386931;                                  143P    287
128,1,1,1,1,0,0,1,0,0,-4.501,-4.501,4.501,4.501,                     145P    288
-1.65595743105275,-1.65595743105275,2.27343774056966,                145P    289
2.27343774056966,1.,1.,1.,1.,8.,-11.309148621055,45.01,8.,           145P    290
-11.309148621055,-45.01,8.,27.9848030951691,45.01,8.,                145P    291
27.9848030951691,-45.01,-4.501,4.501,-1.65595743105275,              145P    292
2.27343774056966;                                                    145P    293
128,1,1,1,1,0,0,1,0,0,-4.501,-4.501,4.501,4.501,                     147P    294
-1.65595743105275,-1.65595743105275,2.27343774056966,                147P    295
2.27343774056966,1.,1.,1.,1.,0.,-11.309148621055,-45.01,0.,          147P    296
-11.309148621055,45.01,0.,27.9848030951691,-45.01,0.,                147P    297
27.9848030951691,45.01,-4.501,4.501,-1.65595743105275,               147P    298
2.27343774056966;                                                    147P    299
502,22,6.9,-9.69914862105496,-35.,1.1,-9.69914862105496,-35.,        149P    300
1.1,-11.299148621055,-35.,6.9,-9.69914862105497,35.,1.1,             149P    301
-9.69914862105497,35.,1.1,-11.299148621055,35.,0.,                   149P    302
-11.299148621055,45.,0.,-11.299148621055,17.7011084522781,8.,        149P    303
-11.299148621055,17.7011084522781,8.,-11.299148621055,45.,0.,        149P    304
-9.69914862105497,45.,8.,-9.69914862105497,45.,0.,                   149P    305
-9.69914862105496,19.5234862672292,8.,-9.69914862105496,             149P    306
19.5234862672292,0.,-9.69914862105497,-19.5234862672292,8.,          149P    307
-9.69914862105497,-19.5234862672292,0.,-9.69914862105496,-45.,       149P    308
8.,-9.69914862105496,-45.,0.,-11.299148621055,-45.,8.,               149P    309
-11.299148621055,-45.,0.,-11.299148621055,-17.7011084522781,8.,      149P    310
-11.299148621055,-17.7011084522781;                                  149P    311
504,32,61,149,1,149,2,63,149,2,149,1,65,149,2,149,3,67,149,3,        151P    312
149,3,69,149,4,149,5,71,149,5,149,4,73,149,5,149,6,75,149,6,149,     151P    313
6,77,149,7,149,8,79,149,8,149,9,81,149,10,149,9,83,149,7,149,10,     151P    314
85,149,11,149,7,87,149,12,149,10,89,149,11,149,12,91,149,13,149,     151P    315
11,93,149,14,149,12,95,149,13,149,14,97,149,15,149,13,99,149,16,     151P    316
149,14,101,149,15,149,16,103,149,17,149,15,105,149,18,149,16,        151P    317
107,149,17,149,18,109,149,19,149,17,111,149,20,149,18,113,149,       151P    318
19,149,20,115,149,21,149,19,117,149,22,149,20,119,149,21,149,22,     151P    319
121,149,8,149,21,123,149,9,149,22;                                   151P    320
406,1,6HSolid4;                                                      153P    321
314,74.9019607843137,74.9019607843137,74.9019607843137,;             155P    322
S      1G      2D    156P    322                                        T      1
