                                                                        S      1
,,,6HPart12,22HAutodesk Inventor 2021,7Hunknown,32,38,7,99,15,,1.,2,2HMMG      1
,1,0.08,15H20221210.204628,0.01,10000.,4Huser,,11,0,15H20221209.000000; G      2
     406       1                       2                        00000000D      1
     406                       1       3                               0D      2
     100       2                       2                        00000000D      3
     100       0     -45       1       0                               0D      4
     186       3                                                00000000D      5
     186             -43       1       0                               0D      6
     514       4                                                00010000D      7
     514                       1       1                               0D      8
     510       5                                                00010000D      9
     510             -43       1       1                               0D     10
     510       6                                                00010000D     11
     510             -43       1       1                               0D     12
     510       7                                                00010000D     13
     510             -43       1       1                               0D     14
     508       8                                                00010000D     15
     508                       2       1                               0D     16
     508      10                                                00010000D     17
     508                       1       1                               0D     18
     508      11                                                00010000D     19
     508                       1       1                               0D     20
     126      12                                                00010000D     21
     126       0               5       0                               0D     22
     126      17                                                00010000D     23
     126       0               7       0                               0D     24
     126      24                                                00010000D     25
     126       0               2       0                               0D     26
     126      26                                                00010000D     27
     126       0               7       0                               0D     28
     126      33                                                00010000D     29
     126       0               5       0                               0D     30
     128      38                                                00010000D     31
     128       0     -43      11       0                               0D     32
     128      49                                                00010000D     33
     128       0     -43       3       0                               0D     34
     128      52                                                00010000D     35
     128       0     -43       3       0                               0D     36
     502      55                                                00010000D     37
     502                       1       1                               0D     38
     504      56                                                00010001D     39
     504                       2       1                               0D     40
     406      58                                                00000000D     41
     406                       1      15                               0D     42
     314      59                                                00000200D     43
     314                       1       0                               0D     44
     314      60                                                00000200D     45
     314                       1       0                               0D     46
406,2,0,7HSketch2;                                                     1P      1
100,0.,0.,0.,-5.,-6.12323399573677D-16,-5.,6.12323399573677D-16;       3P      2
186,7,1,0,0,1,41;                                                      5P      3
514,3,9,1,11,1,13,1;                                                   7P      4
510,31,1,1,15;                                                         9P      5
510,33,1,1,17;                                                        11P      6
510,35,1,1,19;                                                        13P      7
508,6,0,39,1,0,0,0,39,2,0,0,0,39,3,1,0,0,39,4,1,0,0,39,5,1,0,0,       15P      8
39,3,0,0;                                                             15P      9
508,2,0,39,1,1,0,0,39,2,1,0;                                          17P     10
508,2,0,39,5,0,0,0,39,4,0,0;                                          19P     11
126,4,2,0,0,0,0,0.,0.,0.,1.5707963267949,1.5707963267949,             21P     12
3.14159265358979,3.14159265358979,3.14159265358979,1.,                21P     13
0.707106781186548,1.,0.707106781186548,1.,5.,0.,100.,5.,5.,100.,      21P     14
3.06161699786838D-16,5.,100.,-5.,5.,100.,-5.,                         21P     15
6.12323399573677D-16,100.,0.,3.14159265358979,0.,0.,0.;               21P     16
126,4,2,0,0,0,0,3.14159265358979,3.14159265358979,                    23P     17
3.14159265358979,4.71238898038469,4.71238898038469,                   23P     18
6.28318530717959,6.28318530717959,6.28318530717959,1.,                23P     19
0.707106781186548,1.,0.707106781186547,1.,-5.,                        23P     20
6.12323399573677D-16,100.,-5.,-5.,100.,-9.18485099360515D-16,         23P     21
-5.,100.,5.,-5.,100.,5.,-1.22464679914735D-15,100.,                   23P     22
3.14159265358979,6.28318530717959,0.,0.,0.;                           23P     23
126,1,1,0,0,1,0,-20.,-20.,0.,0.,1.,1.,-5.,0.,100.,-5.,0.,0.,          25P     24
-20.,0.,0.,0.,0.;                                                     25P     25
126,4,2,0,0,0,0,3.14159265358979,3.14159265358979,                    27P     26
3.14159265358979,4.71238898038469,4.71238898038469,                   27P     27
6.28318530717959,6.28318530717959,6.28318530717959,1.,                27P     28
0.707106781186548,1.,0.707106781186547,1.,-5.,                        27P     29
6.12323399573677D-16,0.,-5.,-5.,0.,-9.18485099360515D-16,-5.,0.,      27P     30
5.,-5.,0.,5.,-1.22464679914735D-15,0.,3.14159265358979,               27P     31
6.28318530717959,0.,0.,0.;                                            27P     32
126,4,2,0,0,0,0,0.,0.,0.,1.5707963267949,1.5707963267949,             29P     33
3.14159265358979,3.14159265358979,3.14159265358979,1.,                29P     34
0.707106781186548,1.,0.707106781186548,1.,5.,0.,0.,5.,5.,0.,          29P     35
3.06161699786838D-16,5.,0.,-5.,5.,0.,-5.,6.12323399573677D-16,        29P     36
0.,0.,3.14159265358979,0.,0.,0.;                                      29P     37
128,1,8,1,2,0,1,0,0,1,0.,0.,20.,20.,-3.14159265358979,                31P     38
-3.14159265358979,-3.14159265358979,-1.5707963267949,                 31P     39
-1.5707963267949,0.,0.,1.5707963267949,1.5707963267949,               31P     40
3.14159265358979,3.14159265358979,3.14159265358979,1.,1.,             31P     41
0.707106781186548,0.707106781186548,1.,1.,0.707106781186548,          31P     42
0.707106781186548,1.,1.,0.707106781186548,0.707106781186548,1.,       31P     43
1.,0.707106781186548,0.707106781186548,1.,1.,-5.,0.,100.,-5.,0.,      31P     44
0.,-5.,-5.,100.,-5.,-5.,0.,0.,-5.,100.,0.,-5.,0.,5.,-5.,100.,5.,      31P     45
-5.,0.,5.,0.,100.,5.,0.,0.,5.,5.,100.,5.,5.,0.,0.,5.,100.,0.,5.,      31P     46
0.,-5.,5.,100.,-5.,5.,0.,-5.,0.,100.,-5.,0.,0.,0.,20.,                31P     47
-3.14159265358979,3.14159265358979;                                   31P     48
128,1,1,1,1,0,0,1,0,0,-0.501,-0.501,0.501,0.501,-0.501,-0.501,        33P     49
0.501,0.501,1.,1.,1.,1.,-5.01,-5.01,100.,5.01,-5.01,100.,-5.01,       33P     50
5.01,100.,5.01,5.01,100.,-0.501,0.501,-0.501,0.501;                   33P     51
128,1,1,1,1,0,0,1,0,0,-0.501,-0.501,0.501,0.501,-0.501,-0.501,        35P     52
0.501,0.501,1.,1.,1.,1.,5.01,-5.01,0.,-5.01,-5.01,0.,5.01,5.01,       35P     53
0.,-5.01,5.01,0.,-0.501,0.501,-0.501,0.501;                           35P     54
502,4,5.,0.,100.,-5.,0.,100.,-5.,0.,0.,5.,0.,0.;                      37P     55
504,5,21,37,1,37,2,23,37,2,37,1,25,37,2,37,3,27,37,3,37,4,29,37,      39P     56
4,37,3;                                                               39P     57
406,1,6HSolid2;                                                       41P     58
314,74.9019607843137,74.9019607843137,74.9019607843137,;              43P     59
314,0.,0.,0.,;                                                        45P     60
S      1G      2D     46P     60                                        T      1
