                                                                        S      1
,,,5HPart1,22HAutodesk Inventor 2021,7Hunknown,32,38,7,99,15,,1.,2,2HMM,G      1
1,0.08,15H20221212.061833,0.01,10000.,4Huser,,11,0,15H20221209.000000;  G      2
     186       1                                                00000000D      1
     186             -95       1       0                               0D      2
     514       2                                                00010000D      3
     514                       1       1                               0D      4
     510       3                                                00010000D      5
     510             -95       1       1                               0D      6
     510       4                                                00010000D      7
     510             -95       1       1                               0D      8
     510       5                                                00010000D      9
     510             -95       1       1                               0D     10
     510       6                                                00010000D     11
     510             -95       1       1                               0D     12
     510       7                                                00010000D     13
     510             -95       1       1                               0D     14
     510       8                                                00010000D     15
     510             -95       1       1                               0D     16
     510       9                                                00010000D     17
     510             -95       1       1                               0D     18
     510      10                                                00010000D     19
     510             -95       1       1                               0D     20
     508      11                                                00010000D     21
     508                       1       1                               0D     22
     508      12                                                00010000D     23
     508                       1       1                               0D     24
     508      13                                                00010000D     25
     508                       1       1                               0D     26
     508      14                                                00010000D     27
     508                       1       1                               0D     28
     508      15                                                00010000D     29
     508                       1       1                               0D     30
     508      16                                                00010000D     31
     508                       2       1                               0D     32
     508      18                                                00010000D     33
     508                       1       1                               0D     34
     508      19                                                00010000D     35
     508                       1       1                               0D     36
     508      20                                                00010000D     37
     508                       1       1                               0D     38
     126      21                                                00010000D     39
     126       0               6       0                               0D     40
     126      27                                                00010000D     41
     126       0               3       0                               0D     42
     126      30                                                00010000D     43
     126       0               2       0                               0D     44
     126      32                                                00010000D     45
     126       0               3       0                               0D     46
     126      35                                                00010000D     47
     126       0               6       0                               0D     48
     126      41                                                00010000D     49
     126       0               3       0                               0D     50
     126      44                                                00010000D     51
     126       0               3       0                               0D     52
     126      47                                                00010000D     53
     126       0               6       0                               0D     54
     126      53                                                00010000D     55
     126       0               3       0                               0D     56
     126      56                                                00010000D     57
     126       0               3       0                               0D     58
     126      59                                                00010000D     59
     126       0               7       0                               0D     60
     126      66                                                00010000D     61
     126       0               2       0                               0D     62
     126      68                                                00010000D     63
     126       0               7       0                               0D     64
     126      75                                                00010000D     65
     126       0               5       0                               0D     66
     126      80                                                00010000D     67
     126       0               2       0                               0D     68
     126      82                                                00010000D     69
     126       0               5       0                               0D     70
     126      87                                                00010000D     71
     126       0               7       0                               0D     72
     128      94                                                00010000D     73
     128       0     -95       6       0                               0D     74
     128     100                                                00010000D     75
     128       0     -95       7       0                               0D     76
     128     107                                                00010000D     77
     128       0     -95       7       0                               0D     78
     128     114                                                00010000D     79
     128       0     -95       4       0                               0D     80
     128     118                                                00010000D     81
     128       0     -95       3       0                               0D     82
     128     121                                                00010000D     83
     128       0     -95      12       0                               0D     84
     128     133                                                00010000D     85
     128       0     -95       3       0                               0D     86
     128     136                                                00010000D     87
     128       0     -95       3       0                               0D     88
     502     139                                                00010000D     89
     502                       5       1                               0D     90
     504     144                                                00010001D     91
     504                       4       1                               0D     92
     406     148                                                00000000D     93
     406                       1      15                               0D     94
     314     149                                                00000200D     95
     314                       1       0                               0D     96
186,3,1,0,0,1,93;                                                      1P      1
514,8,5,1,7,1,9,1,11,1,13,1,15,1,17,1,19,1;                            3P      2
510,73,1,1,21;                                                         5P      3
510,75,1,1,23;                                                         7P      4
510,77,1,1,25;                                                         9P      5
510,79,1,1,27;                                                        11P      6
510,81,1,1,29;                                                        13P      7
510,83,2,1,31,33;                                                     15P      8
510,85,1,1,35;                                                        17P      9
510,87,1,1,37;                                                        19P     10
508,4,0,91,1,0,0,0,91,2,1,0,0,91,3,1,0,0,91,4,0,0;                    21P     11
508,4,0,91,5,0,0,0,91,4,1,0,0,91,6,1,0,0,91,7,0,0;                    23P     12
508,4,0,91,8,0,0,0,91,9,1,0,0,91,10,1,0,0,91,2,0,0;                   25P     13
508,4,0,91,11,0,0,0,91,7,1,0,0,91,12,1,0,0,91,9,0,0;                  27P     14
508,4,0,91,3,0,0,0,91,10,0,0,0,91,12,0,0,0,91,6,0,0;                  29P     15
508,6,0,91,13,0,0,0,91,14,0,0,0,91,15,1,0,0,91,16,0,0,0,91,17,0,      31P     16
0,0,91,15,0,0;                                                        31P     17
508,4,0,91,11,1,0,0,91,8,1,0,0,91,1,1,0,0,91,5,1,0;                   33P     18
508,2,0,91,16,1,0,0,91,17,1,0;                                        35P     19
508,2,0,91,13,1,0,0,91,14,1,0;                                        37P     20
126,2,2,0,0,0,0,-1.85755350304206,-1.85755350304206,                  39P     21
-1.85755350304206,-1.2945853163426,-1.2945853163426,                  39P     22
-1.2945853163426,1.,0.96064424250314,1.,-2.54558979925646,            39P     23
8.63249515342589,-60.,-0.0494017702362264,9.36858253844784,-60.,      39P     24
2.45441020074354,8.65886081228276,-60.,-1.85755350304206,             39P     25
-1.2945853163426,0.,0.,0.;                                            39P     26
126,1,1,0,0,1,0,0.036750484657411,0.036750484657411,0.5,0.5,1.,       41P     27
1.,-2.54558979925646,8.63249515342589,-60.,-2.54558979925646,4.,      41P     28
-60.,0.036750484657411,0.5,0.,0.,0.;                                  41P     29
126,1,1,0,0,1,0,-0.5,-0.5,0.,0.,1.,1.,-2.54558979925646,4.,-60.,      43P     30
2.45441020074354,4.,-60.,-0.5,0.,0.,0.,0.;                            43P     31
126,1,1,0,0,1,0,0.0341139187717241,0.0341139187717241,0.5,0.5,        45P     32
1.,1.,2.45441020074354,8.65886081228276,-60.,2.45441020074354,        45P     33
4.,-60.,0.0341139187717241,0.5,0.,0.,0.;                              45P     34
126,2,2,0,0,0,0,-1.2945853163426,-1.2945853163426,                    47P     35
-1.2945853163426,-0.585685543457152,-0.585685543457152,               47P     36
-0.585685543457152,1.,0.937837561104409,1.,2.45441020074354,          47P     37
8.65886081228276,-60.,5.65887749552336,7.75053379481875,              47P     38
-40.9469214367047,7.5,4.9749371855331,-30.,-1.2945853163426,          47P     39
-0.585685543457152,0.,0.,0.;                                          47P     40
126,1,1,0,0,1,0,-3.04213408057955,-3.04213408057955,0.,0.,1.,1.,      49P     41
2.45441020074354,4.,-60.,7.5,4.,-30.,-3.04213408057955,0.,0.,0.,      49P     42
0.;                                                                   49P     43
126,1,1,0,0,1,0,0.40250628144669,0.40250628144669,0.5,0.5,1.,1.,      51P     44
7.5,4.97493718553311,-30.,7.5,4.,-30.,0.40250628144669,0.5,0.,        51P     45
0.,0.;                                                                51P     46
126,2,2,0,0,0,0,-2.55590711013264,-2.55590711013264,                  53P     47
-2.55590711013264,-1.85755350304206,-1.85755350304206,                53P     48
-1.85755350304206,1.,0.939654666790853,1.,-7.5,4.97493718553309,      53P     49
-30.,-5.68864581310503,7.70565636751943,-40.9681321095887,            53P     50
-2.54558979925646,8.63249515342589,-60.,-2.55590711013264,            53P     51
-1.85755350304206,0.,0.,0.;                                           53P     52
126,1,1,0,0,1,0,0.402506281446691,0.402506281446691,0.5,0.5,1.,       55P     53
1.,-7.5,4.9749371855331,-30.,-7.5,4.,-30.,0.402506281446691,0.5,      55P     54
0.,0.,0.;                                                             55P     55
126,1,1,0,0,1,0,-3.04063509885226,-3.04063509885226,0.,0.,1.,1.,      57P     56
-7.5,4.,-30.,-2.54558979925646,4.,-60.,-3.04063509885226,0.,0.,       57P     57
0.,0.;                                                                57P     58
126,4,2,0,0,0,0,0.585685543457152,0.585685543457152,                  59P     59
0.585685543457152,1.5707963267949,1.5707963267949,                    59P     60
2.55590711013264,2.55590711013264,2.55590711013264,1.,                59P     61
0.881127345618262,1.,0.881127345618262,1.,7.5,4.9749371855331,        59P     62
-30.,4.83007537736027,9.,-30.,-5.44411327335954D-15,9.,-30.,          59P     63
-4.83007537736029,9.,-30.,-7.5,4.97493718553309,-30.,                 59P     64
0.585685543457152,2.55590711013264,0.,0.,0.;                          59P     65
126,1,1,0,0,1,0,-1.5,-1.5,0.,0.,1.,1.,7.5,4.,-30.,-7.5,4.,-30.,       61P     66
-1.5,0.,0.,0.,0.;                                                     61P     67
126,4,2,0,0,0,0,-6.28318530717959,-6.28318530717959,                  63P     68
-6.28318530717959,-4.71238898038469,-4.71238898038469,                63P     69
-3.14159265358979,-3.14159265358979,-3.14159265358979,1.,             63P     70
0.707106781186548,1.,0.707106781186548,1.,9.,                         63P     71
-2.20436423846524D-15,-100.,9.,-9.,-100.,-1.65327317884893D-15,       63P     72
-9.,-100.,-9.,-9.,-100.,-9.,1.10218211923262D-15,-100.,               63P     73
-6.28318530717959,-3.14159265358979,0.,0.,0.;                         63P     74
126,4,2,0,0,0,0,-3.14159265358979,-3.14159265358979,                  65P     75
-3.14159265358979,-1.5707963267949,-1.5707963267949,0.,0.,0.,1.,      65P     76
0.707106781186548,1.,0.707106781186548,1.,-9.,                        65P     77
1.10218211923262D-15,-100.,-9.,9.,-100.,5.51091059616309D-16,9.,      65P     78
-100.,9.,9.,-100.,9.,0.,-100.,-3.14159265358979,0.,0.,0.,0.;          65P     79
126,1,1,0,0,1,0,-11.1111111111111,-11.1111111111111,0.,0.,1.,1.,      67P     80
-9.,0.,-100.,-9.,0.,0.,-11.1111111111111,0.,0.,0.,0.;                 67P     81
126,4,2,0,0,0,0,0.,0.,0.,1.5707963267949,1.5707963267949,             69P     82
3.14159265358979,3.14159265358979,3.14159265358979,1.,                69P     83
0.707106781186548,1.,0.707106781186548,1.,9.,0.,0.,9.,9.,0.,          69P     84
5.51091059616309D-16,9.,0.,-9.,9.,0.,-9.,1.10218211923262D-15,        69P     85
0.,0.,3.14159265358979,0.,0.,0.;                                      69P     86
126,4,2,0,0,0,0,3.14159265358979,3.14159265358979,                    71P     87
3.14159265358979,4.71238898038469,4.71238898038469,                   71P     88
6.28318530717959,6.28318530717959,6.28318530717959,1.,                71P     89
0.707106781186548,1.,0.707106781186548,1.,-9.,                        71P     90
1.10218211923262D-15,0.,-9.,-9.,0.,-1.65327317884893D-15,-9.,0.,      71P     91
9.,-9.,0.,9.,-2.20436423846524D-15,0.,3.14159265358979,               71P     92
6.28318530717959,0.,0.,0.;                                            71P     93
128,1,1,1,1,0,0,1,0,0,-0.001,-0.001,0.501,0.501,                      73P     94
-0.0378582538447845,-0.0378582538447845,0.501,0.501,1.,1.,1.,1.,      73P     95
2.46441020074354,9.37858253844784,-60.,-2.55558979925646,             73P     96
9.37858253844784,-60.,2.46441020074354,3.99,-60.,                     73P     97
-2.55558979925646,3.99,-60.,-0.001,0.501,-0.0378582538447845,         73P     98
0.501;                                                                73P     99
128,1,1,1,1,0,0,1,0,0,-0.001,-0.001,3.04313408057955,                 75P    100
3.04313408057955,0.0331139187717241,0.0331139187717241,0.501,         75P    101
0.501,1.,1.,1.,1.,7.50165856917072,8.66886081228276,                  75P    102
-29.990138501721,2.45275163157282,8.66886081228276,                   75P    103
-60.009861498279,7.50165856917072,3.99,-29.990138501721,              75P    104
2.45275163157282,3.99,-60.009861498279,-0.001,3.04313408057955,       75P    105
0.0331139187717241,0.501;                                             75P    106
128,1,1,1,1,0,0,1,0,0,-0.00100000000000046,-0.00100000000000046,      77P    107
3.04163509885226,3.04163509885226,0.035750484657411,                  77P    108
0.035750484657411,0.501,0.501,1.,1.,1.,1.,-2.54396039946343,          77P    109
8.64249515342589,-60.009866359831,-7.50162939979303,                  77P    110
8.64249515342589,-29.990133640169,-2.54396039946343,3.99,             77P    111
-60.009866359831,-7.50162939979303,3.99,-29.990133640169,             77P    112
-0.00100000000000046,3.04163509885226,0.035750484657411,0.501;        77P    113
128,1,1,1,1,0,0,1,0,0,-0.001,-0.001,1.501,1.501,                      79P    114
-0.00100000000000033,-0.00100000000000033,0.501,0.501,1.,1.,1.,       79P    115
1.,-7.51,9.01,-30.,7.51,9.01,-30.,-7.51,3.99,-30.,7.51,3.99,          79P    116
-30.,-0.001,1.501,-0.00100000000000033,0.501;                         79P    117
128,1,1,1,1,0,0,1,0,0,-1.501,-1.501,1.501,1.501,-0.751,-0.751,        81P    118
0.751,0.751,1.,1.,1.,1.,-7.51,4.,-60.01,-7.51,4.,-29.99,7.51,4.,      81P    119
-60.01,7.51,4.,-29.99,-1.501,1.501,-0.751,0.751;                      81P    120
128,1,8,1,2,0,1,0,0,1,0.,0.,11.1111111111111,11.1111111111111,        83P    121
-3.14159265358979,-3.14159265358979,-3.14159265358979,                83P    122
-1.5707963267949,-1.5707963267949,0.,0.,1.5707963267949,              83P    123
1.5707963267949,3.14159265358979,3.14159265358979,                    83P    124
3.14159265358979,1.,1.,0.707106781186548,0.707106781186548,1.,        83P    125
1.,0.707106781186548,0.707106781186548,1.,1.,0.707106781186548,       83P    126
0.707106781186548,1.,1.,0.707106781186548,0.707106781186548,1.,       83P    127
1.,-9.,0.,-100.,-9.,0.,0.,-9.,9.,-100.,-9.,9.,0.,0.,9.,-100.,0.,      83P    128
9.,0.,9.,9.,-100.,9.,9.,0.,9.,0.,-100.,9.,0.,0.,9.,-9.,-100.,9.,      83P    129
-9.,0.,0.,-9.,-100.,0.,-9.,0.,-9.,-9.,-100.,-9.,-9.,0.,-9.,0.,        83P    130
-100.,-9.,0.,0.,0.,11.1111111111111,-3.14159265358979,                83P    131
3.14159265358979;                                                     83P    132
128,1,1,1,1,0,0,1,0,0,-0.901,-0.901,0.901,0.901,-0.901,-0.901,        85P    133
0.901,0.901,1.,1.,1.,1.,-9.01,-9.01,0.,9.01,-9.01,0.,-9.01,9.01,      85P    134
0.,9.01,9.01,0.,-0.901,0.901,-0.901,0.901;                            85P    135
128,1,1,1,1,0,0,1,0,0,-0.901,-0.901,0.901,0.901,-0.901,-0.901,        87P    136
0.901,0.901,1.,1.,1.,1.,9.01,-9.01,-100.,-9.01,-9.01,-100.,9.01,      87P    137
9.01,-100.,-9.01,9.01,-100.,-0.901,0.901,-0.901,0.901;                87P    138
502,12,-2.54558979925646,8.63249515342589,-60.,2.45441020074354,      89P    139
8.65886081228276,-60.,-2.54558979925646,4.,-60.,                      89P    140
2.45441020074354,4.,-60.,7.5,4.97493718553311,-30.,7.5,4.,-30.,       89P    141
-7.5,4.9749371855331,-30.,-7.5,4.,-30.,9.,0.,-100.,-9.,0.,-100.,      89P    142
-9.,0.,0.,9.,0.,0.;                                                   89P    143
504,17,39,89,1,89,2,41,89,1,89,3,43,89,3,89,4,45,89,2,89,4,47,        91P    144
89,2,89,5,49,89,4,89,6,51,89,5,89,6,53,89,7,89,1,55,89,7,89,8,        91P    145
57,89,8,89,3,59,89,5,89,7,61,89,6,89,8,63,89,9,89,10,65,89,10,        91P    146
89,9,67,89,10,89,11,69,89,12,89,11,71,89,11,89,12;                    91P    147
406,1,6HSolid3;                                                       93P    148
314,74.9019607843137,74.9019607843137,74.9019607843137,;              95P    149
S      1G      2D     96P    149                                        T      1
